<svg xmlns="http://www.w3.org/2000/svg" viewBox="0 0 24 24" aria-hidden="true">
  <path fill="currentColor" d="M12.04 2a9.86 9.86 0 0 1 9.84 9.85 9.76 9.76 0 0 1-1.34 4.94L22 22l-5.34-1.4A9.84 9.84 0 0 1 2.2 12.33 9.84 9.84 0 0 1 12.04 2Zm0 1.95a7.9 7.9 0 0 0-7.88 7.9c0 1.49.42 2.95 1.22 4.2l.2.32-.8 2.92 3-.79.3.18a7.9 7.9 0 1 0 3.96-14.73Zm-3.3 4.33c.18-.4.36-.41.53-.42h.45c.16 0 .42.06.64.3.22.23.84.82.84 2 0 1.17-.86 2.3-.98 2.46-.12.16-1.66 2.66-4.1 3.62-2.03.8-2.44.64-2.88.6-.44-.04-1.42-.58-1.62-1.14-.2-.56-.2-1.04-.14-1.14.06-.1.22-.16.46-.3.24-.13.42-.22.6-.33.2-.13.32-.24.46-.48.14-.24.07-.45-.03-.63-.1-.18-.64-1.55-.88-2.13-.23-.56-.47-.48-.64-.49h-.55c-.2 0-.5.08-.76.36-.26.28-1 1-1 2.44s1.03 2.83 1.18 3.03c.15.2 2.02 3.1 4.9 4.35.69.3 1.22.47 1.64.6.69.22 1.31.19 1.8.12.55-.08 1.7-.7 1.94-1.37.24-.67.24-1.24.17-1.36-.07-.12-.27-.2-.56-.34-.3-.15-1.7-.84-1.96-.94-.26-.1-.45-.15-.64.15-.19.3-.74.94-.9 1.13-.17.2-.34.22-.63.08-.3-.15-1.25-.46-2.38-1.47-.88-.78-1.47-1.75-1.64-2.04-.17-.3-.02-.46.13-.61.13-.13.3-.34.44-.5.15-.17.2-.3.3-.5.1-.2.05-.37-.02-.52-.07-.15-.65-1.6-.9-2.19Z"/>
</svg>
